<?xml version="1.0" encoding="UTF-8"?>
<!-- Generator: https://ezgif.com/webp-to-svg -->
<svg version="1.1" xmlns="http://www.w3.org/2000/svg" width="300" height="300">
<path d="M0 0 C-0.42 11.93 -2.51 21.32 -11 30 C-16.56 29.1 -21.76 27.11 -27.05 25.26 C-38 21.52 -52.34 17.42 -63.75 21.06 C-67.58 23.35 -69.16 24.93 -71 29 C-71.91 33.35 -71.43 36.17 -69.38 40.12 C-63.74 45.92 -54.3 48.15 -46.87 50.91 C-28 57.93 -9.61 65.68 0.32 84.5 C4.7 95.27 5.09 110.19 1.38 121.25 C0.25 123.73 0.25 123.73 -1 126 C-1.41 126.77 -1.82 127.54 -2.25 128.34 C-9.33 140.13 -20.1 147.35 -33.2 150.71 C-40.42 152.45 -47.56 153.73 -55 154 C-55.75 154.04 -56.49 154.08 -57.26 154.12 C-79.24 154.75 -99.59 148.9 -119 139 C-118.72 127.44 -114.48 117.74 -107 109 C-103.19 110.13 -99.7 111.6 -96.12 113.31 C-81.5 120.02 -65.99 124.55 -50 120 C-48.32 119.03 -46.65 118.03 -45 117 C-44.34 117 -43.68 117 -43 117 C-40.88 112.75 -40.28 108.68 -41 104 C-46.12 93.11 -59.91 90.15 -70.29 86.28 C-87.12 79.88 -103.08 72.11 -111 55 C-116.01 43.62 -115.28 30.5 -111 19 C-110.74 18.31 -110.49 17.61 -110.23 16.9 C-105.58 6.2 -95.82 -2.5 -85.08 -6.76 C-58.22 -16.46 -25.49 -12.52 0 0 Z " fill="#1034BB" transform="translate(220,102)"/>
<path d="M0 0 C7.59 0 15.18 0 23 0 C23 96.36 23 192.72 23 292 C15.41 292 7.82 292 0 292 C0 195.64 0 99.28 0 0 Z " fill="#1034BB" transform="translate(274,4)"/>
<path d="M0 0 C2 2 2 2 2.24 4.02 C2.23 5.27 2.23 5.27 2.23 6.54 C2.23 7.48 2.23 8.42 2.23 9.39 C2.22 10.41 2.21 11.43 2.2 12.48 C2.19 13.52 2.19 14.56 2.19 15.63 C2.18 18.96 2.15 22.29 2.12 25.62 C2.11 27.88 2.11 30.14 2.1 32.39 C2.08 37.93 2.04 43.46 2 49 C15.2 49 28.4 49 42 49 C43.35 55.74 43.2 61.3 42 68 C39.27 68.03 36.54 68.05 33.81 68.06 C32.72 68.08 32.72 68.08 31.6 68.09 C25.09 68.11 18.61 67.81 12.11 67.49 C11.14 67.45 10.16 67.4 9.16 67.35 C6.77 67.23 4.39 67.12 2 67 C2.11 81.53 2.22 96.07 2.34 110.6 C2.39 117.35 2.45 124.1 2.5 130.85 C2.54 137.36 2.6 143.87 2.65 150.38 C2.67 152.86 2.69 155.35 2.71 157.84 C2.73 161.31 2.76 164.79 2.79 168.26 C2.8 169.81 2.8 169.81 2.81 171.39 C2.82 172.34 2.83 173.29 2.84 174.27 C2.85 175.09 2.85 175.91 2.86 176.76 C3 178.96 3.39 180.89 4 183 C10.85 185.5 17.71 185.44 24.94 185.62 C26.82 185.68 26.82 185.68 28.74 185.74 C31.83 185.84 34.91 185.92 38 186 C39.8 190.17 40.22 193.25 40.12 197.81 C40.11 198.97 40.09 200.14 40.07 201.33 C40.05 202.21 40.02 203.09 40 204 C22.7 206.78 0.11 210.39 -15.06 199.44 C-21.99 192.3 -22.58 182.34 -22.45 172.92 C-22.45 171.77 -22.46 170.61 -22.46 169.43 C-22.45 165.66 -22.42 161.88 -22.39 158.11 C-22.38 155.48 -22.38 152.85 -22.37 150.22 C-22.36 144.03 -22.33 137.84 -22.29 131.65 C-22.24 124.6 -22.22 117.54 -22.2 110.49 C-22.16 95.99 -22.09 81.5 -22 67 C-22.82 67.07 -23.65 67.14 -24.5 67.22 C-25.58 67.31 -26.66 67.4 -27.78 67.49 C-28.85 67.59 -29.92 67.68 -31.03 67.77 C-34.11 68.01 -37.16 68.1 -40.25 68.06 C-41.82 68.04 -43.38 68.02 -45 68 C-45 61.73 -45 55.46 -45 49 C-37.41 49 -29.82 49 -22 49 C-22.05 44.77 -22.05 44.77 -22.11 40.46 C-22.13 37.72 -22.15 34.98 -22.16 32.24 C-22.18 30.34 -22.2 28.44 -22.23 26.54 C-22.26 23.81 -22.28 21.07 -22.29 18.34 C-22.31 17.49 -22.32 16.65 -22.34 15.78 C-22.34 10.77 -21.79 7.34 -19 3 C-13.67 -1.21 -6.49 -0.69 0 0 Z " fill="#1034BB" transform="translate(48,47)"/>
</svg>
